<svg width="197" height="43" viewBox="0 0 197 43" fill="none" xmlns="http://www.w3.org/2000/svg">
<circle cx="20.5" cy="20.5" r="20.5" fill="#D9D9D9"/>
<circle cx="72.5" cy="22.5" r="20.5" fill="#D9D9D9"/>
<g clip-path="url(#clip0_5731_479)">
<path d="M24.4677 23.6875L25.001 20.2489H21.6669V18.0176C21.6669 17.0768 22.1326 16.1599 23.6259 16.1599H25.1416V13.2323C25.1416 13.2323 23.7661 13 22.451 13C19.7052 13 17.9105 14.6469 17.9105 17.6283V20.2489H14.8584V23.6875H17.9105V32H21.6669V23.6875H24.4677Z" fill="black"/>
</g>
<circle cx="124.5" cy="22.5" r="20.5" fill="#D9D9D9"/>
<circle cx="176.5" cy="22.5" r="20.5" fill="#D9D9D9"/>
<path d="M174.134 27.0002H171.231V17.6533H174.134V27.0002ZM172.681 16.3783C171.753 16.3783 171 15.6096 171 14.6814C171 14.2356 171.177 13.8081 171.492 13.4928C171.808 13.1776 172.235 13.0005 172.681 13.0005C173.127 13.0005 173.554 13.1776 173.87 13.4928C174.185 13.8081 174.362 14.2356 174.362 14.6814C174.362 15.6096 173.609 16.3783 172.681 16.3783ZM184.997 27.0002H182.101V22.4502C182.101 21.3658 182.079 19.9752 180.592 19.9752C179.082 19.9752 178.851 21.1533 178.851 22.3721V27.0002H175.952V17.6533H178.736V18.9283H178.776C179.164 18.1939 180.11 17.4189 181.523 17.4189C184.46 17.4189 185 19.3533 185 21.8658V27.0002H184.997Z" fill="black"/>
<path d="M131.253 18.0374C131.263 18.1884 131.263 18.3395 131.263 18.4905C131.263 23.0964 127.758 28.4035 121.35 28.4035C119.376 28.4035 117.543 27.8318 116 26.8395C116.28 26.8718 116.55 26.8826 116.841 26.8826C118.47 26.8826 119.97 26.3325 121.167 25.394C119.635 25.3617 118.352 24.3585 117.909 22.9778C118.125 23.0101 118.341 23.0317 118.567 23.0317C118.88 23.0317 119.193 22.9885 119.484 22.9131C117.888 22.5894 116.69 21.1872 116.69 19.4936V19.4505C117.154 19.7094 117.694 19.8712 118.265 19.8927C117.327 19.2671 116.712 18.1992 116.712 16.9911C116.712 16.3439 116.884 15.7506 117.187 15.2328C118.902 17.347 121.48 18.7277 124.371 18.8788C124.317 18.6199 124.284 18.3502 124.284 18.0806C124.284 16.1605 125.838 14.5964 127.768 14.5964C128.772 14.5964 129.678 15.0171 130.314 15.6967C131.101 15.5457 131.857 15.2544 132.525 14.8553C132.266 15.6643 131.716 16.3439 130.994 16.7754C131.695 16.6999 132.374 16.5057 133 16.236C132.525 16.9264 131.932 17.5412 131.253 18.0374Z" fill="black"/>
<g clip-path="url(#clip1_5731_479)">
<path d="M72.0036 19.9571C69.7321 19.9571 67.9 21.7606 67.9 23.9965C67.9 26.2325 69.7321 28.036 72.0036 28.036C74.275 28.036 76.1071 26.2325 76.1071 23.9965C76.1071 21.7606 74.275 19.9571 72.0036 19.9571ZM72.0036 26.6227C70.5357 26.6227 69.3357 25.445 69.3357 23.9965C69.3357 22.5481 70.5321 21.3704 72.0036 21.3704C73.475 21.3704 74.6714 22.5481 74.6714 23.9965C74.6714 25.445 73.4714 26.6227 72.0036 26.6227ZM77.2321 19.7918C77.2321 20.3157 76.8036 20.734 76.275 20.734C75.7429 20.734 75.3179 20.3122 75.3179 19.7918C75.3179 19.2715 75.7464 18.8497 76.275 18.8497C76.8036 18.8497 77.2321 19.2715 77.2321 19.7918ZM79.95 20.7481C79.8893 19.486 79.5964 18.368 78.6571 17.4469C77.7214 16.5258 76.5857 16.2375 75.3036 16.1743C73.9821 16.1004 70.0214 16.1004 68.7 16.1743C67.4214 16.234 66.2857 16.5223 65.3464 17.4434C64.4071 18.3645 64.1179 19.4825 64.0536 20.7446C63.9786 22.0454 63.9786 25.9442 64.0536 27.245C64.1143 28.5071 64.4071 29.625 65.3464 30.5461C66.2857 31.4672 67.4179 31.7555 68.7 31.8188C70.0214 31.8926 73.9821 31.8926 75.3036 31.8188C76.5857 31.759 77.7214 31.4708 78.6571 30.5461C79.5928 29.625 79.8857 28.5071 79.95 27.245C80.025 25.9442 80.025 22.0489 79.95 20.7481ZM78.2428 28.6407C77.9643 29.3297 77.425 29.8606 76.7214 30.1383C75.6679 30.5497 73.1678 30.4547 72.0036 30.4547C70.8393 30.4547 68.3357 30.5461 67.2857 30.1383C66.5857 29.8641 66.0464 29.3333 65.7643 28.6407C65.3464 27.6036 65.4429 25.1426 65.4429 23.9965C65.4429 22.8504 65.35 20.386 65.7643 19.3524C66.0429 18.6633 66.5821 18.1325 67.2857 17.8547C68.3393 17.4434 70.8393 17.5383 72.0036 17.5383C73.1678 17.5383 75.6714 17.4469 76.7214 17.8547C77.4214 18.129 77.9607 18.6598 78.2428 19.3524C78.6607 20.3895 78.5643 22.8504 78.5643 23.9965C78.5643 25.1426 78.6607 27.6071 78.2428 28.6407Z" fill="black"/>
</g>
<defs>
<clipPath id="clip0_5731_479">
<rect width="12" height="19" fill="white" transform="translate(14 13)"/>
</clipPath>
<clipPath id="clip1_5731_479">
<rect width="16" height="18" fill="white" transform="translate(64 15)"/>
</clipPath>
</defs>
</svg>
